<?xml version="1.0" encoding="UTF-8"?>
<svg id="objects" xmlns="http://www.w3.org/2000/svg" viewBox="0 0 374.93 20.67">
  <path d="M350.91,20.64c-.27,0-.54-.01-.8-.04h-122.79c-.42,0-.77-.34-.77-.76s.34-.77.77-.77h122.87c2.21.24,5.05-.79,6.07-1.2-.1-.1-.2-.2-.29-.3-1.24-1.36-1.66-3.3-1.03-4.83.37-.89,1.14-1.64,2.08-2.01.85-.33,1.75-.32,2.51.04,1.85.88,2.28,3.29,1.5,4.98-.37.81-.95,1.52-1.77,2.16.38.14.79.26,1.22.35,5.35,1.11,11.24-2.55,12.6-7.84.51-1.99.39-3.97-.36-5.57-.81-1.75-2.39-3.01-4.1-3.27-1.79-.28-3.67.64-4.4,2.14-.35.73-.4,1.63-.14,2.47.26.84.81,1.51,1.5,1.84.88.42,1.97.32,2.65-.26.68-.57.89-1.65.47-2.36-.22-.36-.1-.83.26-1.05.36-.22.83-.1,1.05.26.82,1.36.47,3.25-.79,4.32-1.15.97-2.88,1.16-4.3.47-1.07-.52-1.91-1.52-2.29-2.77-.38-1.21-.29-2.52.22-3.59,1.02-2.12,3.55-3.38,6.01-2.99,2.22.35,4.23,1.93,5.26,4.15.89,1.92,1.05,4.27.45,6.6-1.56,6.04-8.29,10.23-14.4,8.95-.93-.19-1.76-.48-2.48-.87-.13.07-.27.14-.41.2-.16.07-3.46,1.54-6.38,1.54ZM358.25,12.03c-.22,0-.45.04-.68.13-.55.22-1.01.65-1.22,1.16-.4.99-.1,2.28.75,3.21.19.21.4.4.64.58.93-.58,1.55-1.24,1.89-1.98.46-1.01.23-2.5-.76-2.97-.19-.09-.4-.13-.62-.13Z" style="fill: #fff; stroke-width: 0px;"/>
  <path d="M23.97,20.64c-2.85,0-6.16-1.47-6.31-1.53-.15-.07-.29-.14-.42-.21-.72.38-1.54.67-2.48.87-6.11,1.28-12.84-2.91-14.4-8.95C-.24,8.48-.08,6.14.81,4.21,1.84,2,3.85.41,6.07.07c2.47-.38,4.99.88,6.02,2.99,1.12,2.32.15,5.29-2.07,6.36-1.43.69-3.16.5-4.31-.47-1.26-1.07-1.61-2.96-.79-4.32.22-.36.69-.48,1.05-.26.36.22.48.69.26,1.05-.42.71-.21,1.78.47,2.36.68.58,1.77.68,2.65.26,1.43-.69,2.09-2.78,1.35-4.31-.72-1.5-2.62-2.42-4.4-2.15-1.72.27-3.29,1.52-4.1,3.28-.74,1.6-.87,3.58-.36,5.57,1.37,5.29,7.25,8.95,12.6,7.83.43-.09.84-.21,1.22-.35-.82-.63-1.4-1.35-1.77-2.15-.77-1.7-.35-4.11,1.51-4.99.76-.36,1.65-.38,2.51-.04.94.36,1.72,1.12,2.08,2.01.62,1.52.21,3.46-1.03,4.83-.09.1-.19.2-.29.3,1.01.4,3.84,1.43,5.99,1.2h122.95c.42,0,.77.34.77.76s-.34.77-.77.77H24.74c-.25.03-.51.04-.77.04ZM16.68,12.03c-.22,0-.43.04-.62.13-.99.47-1.22,1.95-.76,2.97.34.74.96,1.4,1.89,1.98.24-.18.45-.37.64-.58.85-.93,1.15-2.23.75-3.21-.21-.51-.66-.94-1.22-1.16-.23-.09-.46-.13-.68-.13Z" style="fill: #fff; stroke-width: 0px;"/>
  <g>
    <path d="M149.44,20.67c-1.44,0-2.88-.31-4.22-1.06-3-1.66-4.71-4.45-4.69-7.67.02-3.42,1.99-6.75,4.89-8.3,2.65-1.41,5.65-1.17,8.45.67,1.21.8,2.11,2.24,2.4,3.87.28,1.54-.02,3.04-.82,4.13-1.95,2.67-4.27,3.64-6.89,2.89-1.38-.39-2.38-1.67-2.63-3.33-.25-1.73.39-3.37,1.65-4.17.37-.23.85-.13,1.09.24.23.37.13.85-.24,1.09-.74.47-1.11,1.5-.94,2.62.12.82.58,1.78,1.5,2.05,1.98.56,3.63-.17,5.19-2.31.54-.74.74-1.81.54-2.92-.22-1.21-.86-2.27-1.72-2.83-2.3-1.51-4.73-1.73-6.84-.6-2.41,1.28-4.04,4.07-4.06,6.92-.02,2.66,1.36,4.89,3.88,6.28,3.67,2.03,8.42.06,11.38-2.25,1.76-1.37,3.35-3.05,4.88-4.67,1.44-1.52,2.92-3.09,4.58-4.45,4.31-3.54,9.16-4.68,12.98-3.06,2.9,1.23,5.04,4.17,5.32,7.32s-1.31,6.41-3.95,8.14c-2.77,1.81-6.46,1.72-8.76-.22-1.28-1.07-2.05-2.78-2.06-4.56,0-1.6.61-3.06,1.71-4.01,1.26-1.09,3.2-1.33,4.93-.63,1.6.65,2.64,1.94,2.78,3.45.04.43-.28.81-.71.85-.44.04-.81-.28-.85-.71-.08-.91-.76-1.71-1.8-2.13-1.19-.48-2.5-.34-3.32.37-.76.65-1.17,1.65-1.16,2.81,0,1.33.57,2.59,1.5,3.37,1.76,1.48,4.72,1.52,6.89.11,2.17-1.42,3.47-4.1,3.25-6.68-.23-2.58-1.98-5-4.37-6.01-3.84-1.64-8.39.39-11.36,2.83-1.58,1.3-3.03,2.83-4.44,4.32-1.57,1.66-3.2,3.38-5.06,4.83-2.41,1.88-5.67,3.44-8.89,3.44Z" style="fill: #fff; stroke-width: 0px;"/>
    <path d="M226.28,20.67c-3.21,0-6.48-1.56-8.89-3.44-1.86-1.45-3.48-3.17-5.06-4.83-1.4-1.48-2.85-3.02-4.43-4.32-2.97-2.44-7.52-4.46-11.37-2.83-2.38,1.01-4.14,3.43-4.37,6.01-.23,2.58,1.08,5.27,3.25,6.68,2.17,1.42,5.13,1.37,6.89-.11.93-.78,1.49-2.04,1.5-3.37,0-1.16-.41-2.15-1.17-2.81-.82-.71-2.12-.85-3.32-.37-1.04.42-1.72,1.22-1.8,2.13-.04.43-.43.75-.86.71-.43-.04-.75-.42-.71-.85.14-1.51,1.18-2.8,2.78-3.45,1.73-.7,3.67-.45,4.93.63,1.1.94,1.72,2.4,1.71,4.01-.01,1.78-.78,3.49-2.06,4.56-2.31,1.94-5.99,2.03-8.76.22-2.64-1.72-4.23-4.99-3.95-8.14s2.42-6.08,5.32-7.32c3.81-1.62,8.67-.48,12.98,3.06,1.66,1.36,3.15,2.93,4.58,4.45,1.53,1.62,3.12,3.3,4.88,4.67,2.96,2.3,7.71,4.27,11.38,2.25,2.52-1.39,3.9-3.62,3.88-6.28-.02-2.86-1.65-5.64-4.06-6.92-2.12-1.13-4.54-.92-6.84.6-.86.57-1.5,1.63-1.72,2.83-.2,1.12,0,2.18.54,2.92,1.56,2.14,3.21,2.87,5.19,2.31.92-.26,1.38-1.23,1.5-2.05.16-1.12-.21-2.15-.94-2.62-.37-.23-.47-.72-.24-1.09.23-.36.72-.47,1.09-.24,1.26.81,1.91,2.44,1.65,4.17-.24,1.66-1.25,2.94-2.63,3.33-2.62.74-4.94-.23-6.89-2.89-.8-1.09-1.09-2.59-.82-4.13.29-1.62,1.19-3.07,2.4-3.87,2.8-1.85,5.8-2.08,8.45-.67,2.9,1.55,4.86,4.88,4.89,8.3.02,3.21-1.69,6.01-4.69,7.67-1.34.74-2.78,1.06-4.22,1.06Z" style="fill: #fff; stroke-width: 0px;"/>
  </g>
</svg>